<?xml version="1.0" standalone="no"?>
<!DOCTYPE svg PUBLIC "-//W3C//DTD SVG 1.1//EN" "http://www.w3.org/Graphics/SVG/1.1/DTD/svg11.dtd" >
<svg xmlns="http://www.w3.org/2000/svg" xmlns:xlink="http://www.w3.org/1999/xlink" version="1.1">
<metadata></metadata>
<defs>
<font id="proxima_nova_cond_mediumRg" horiz-adv-x="1071" >
<font-face units-per-em="2048" ascent="1536" descent="-512" />
<missing-glyph horiz-adv-x="438" />
<glyph horiz-adv-x="0" />
<glyph horiz-adv-x="682" />
<glyph unicode=" "  horiz-adv-x="438" />
<glyph unicode="&#x09;" horiz-adv-x="438" />
<glyph unicode="&#xa0;" horiz-adv-x="438" />
<glyph unicode="!" horiz-adv-x="481" d="M117 102q0 51 36 87t87 36t88 -36t37 -87q0 -50 -37 -86t-88 -36t-87 36t-36 86zM133 1366h215l-33 -971h-147z" />
<glyph unicode="&#x22;" horiz-adv-x="729" d="M106 1284q0 42 30 72t73 30q41 0 71.5 -30.5t30.5 -71.5q0 -15 -14.5 -128.5t-29.5 -219.5l-15 -107h-86q-60 422 -60 455zM418 1284q0 42 30 72t72 30t72.5 -30t30.5 -72q0 -15 -15 -128.5t-30 -219.5l-15 -107h-84q-61 422 -61 455z" />
<glyph unicode="#" horiz-adv-x="1054" d="M37 367l33 118h176l110 394h-176l31 118h180l103 369h139l-105 -369h179l104 369h137l-104 -369h174l-31 -118h-178l-111 -394h181l-31 -118h-184l-103 -367h-139l106 367h-180l-102 -367h-140l105 367h-174zM385 485h174l113 394h-178z" />
<glyph unicode="$" horiz-adv-x="978" d="M57 147l103 152q50 -59 121.5 -98.5t154.5 -48.5v469q-45 20 -71.5 33t-66.5 36t-64.5 43t-53.5 51t-44.5 63.5t-26.5 76.5t-11 94q0 143 93 243.5t245 122.5v189h139v-189q183 -18 310 -141l-99 -147q-84 92 -211 112v-426q42 -20 70.5 -35t66.5 -39t63.5 -46.5 t53.5 -54.5t44.5 -66.5t27 -79.5t10.5 -96q0 -146 -87 -252t-249 -131v-187h-139v182q-236 14 -379 170zM297 1028q0 -59 35.5 -99.5t103.5 -78.5v356q-64 -18 -101.5 -64.5t-37.5 -113.5zM575 162q67 23 102.5 74t35.5 116q0 66 -36 113t-102 86v-389z" />
<glyph unicode="%" horiz-adv-x="1345" d="M57 1047q0 147 81.5 243t211.5 96q132 0 213.5 -96t81.5 -243q0 -145 -81.5 -240.5t-213.5 -95.5q-130 0 -211.5 95.5t-81.5 240.5zM188 1047q0 -95 45 -158.5t117 -63.5q73 0 118.5 63.5t45.5 158.5q0 99 -45.5 161t-118.5 62t-117.5 -62t-44.5 -161zM264 0l717 1366 h109l-721 -1366h-105zM700 311q0 147 81.5 243.5t211.5 96.5q132 0 213.5 -96.5t81.5 -243.5q0 -145 -81.5 -240.5t-213.5 -95.5q-130 0 -211.5 95.5t-81.5 240.5zM831 311q0 -96 44.5 -158.5t117.5 -62.5q74 0 119 62t45 159q0 98 -45 161t-119 63q-73 0 -117.5 -63 t-44.5 -161z" />
<glyph unicode="&#x26;" horiz-adv-x="1081" d="M68 350q0 74 19.5 137.5t57.5 112.5t77.5 85t94.5 73q-88 181 -88 301q0 144 83 235.5t212 91.5q117 0 195 -75t78 -197q0 -70 -21.5 -127.5t-64.5 -103.5t-82 -76.5t-100 -72.5q-7 -5 -11 -7q39 -69 113 -178q73 -110 112 -162q66 134 105 287l145 -64 q-73 -224 -151 -352q46 -58 213 -258h-215q-29 37 -99 123q-141 -148 -319 -148q-155 0 -254.5 99t-99.5 276zM252 360q0 -111 56 -176t138 -65q110 0 207 119q-103 133 -145 200q-84 125 -123 193q-64 -57 -98.5 -121t-34.5 -150zM399 1057q0 -83 56 -209q44 30 73 54.5 t57 56.5t42 69t14 80q0 69 -32.5 107t-80.5 38q-60 0 -94.5 -51t-34.5 -145z" />
<glyph unicode="'" horiz-adv-x="417" d="M106 1284q0 42 30 72t73 30q41 0 71.5 -30.5t30.5 -71.5q0 -15 -14.5 -128.5t-29.5 -219.5l-15 -107h-86q-60 422 -60 455z" />
<glyph unicode="(" horiz-adv-x="497" d="M92 498q0 496 250 905l117 -68q-87 -207 -130.5 -403t-43.5 -434t43.5 -434.5t130.5 -401.5l-117 -70q-121 198 -185.5 429.5t-64.5 476.5z" />
<glyph unicode=")" horiz-adv-x="497" d="M37 -338q88 204 132 400.5t44 435.5t-43.5 435t-132.5 402l115 68q254 -406 254 -905q0 -500 -254 -906z" />
<glyph unicode="*" horiz-adv-x="665" d="M49 981l207 106l-207 105l49 88l197 -127l-12 233h100l-10 -233l194 127l51 -88l-206 -105l206 -106l-51 -86l-194 125l10 -232h-100l12 232l-197 -125z" />
<glyph unicode="+" horiz-adv-x="901" d="M59 631v119h328v356h127v-356h328v-119h-328v-371h-127v371h-328z" />
<glyph unicode="," horiz-adv-x="481" d="M117 104q0 50 35 85.5t86 35.5q58 0 97.5 -44.5t39.5 -121.5q0 -95 -48 -181t-126 -142l-84 67q50 33 90 88t47 105q-8 -4 -29 -4q-46 0 -77 31.5t-31 80.5z" />
<glyph unicode="-" horiz-adv-x="548" d="M61 420v151h426v-151h-426z" />
<glyph unicode="." horiz-adv-x="481" d="M117 102q0 51 37 87t88 36q50 0 86.5 -36t36.5 -87t-36.5 -86.5t-86.5 -35.5q-51 0 -88 35.5t-37 86.5z" />
<glyph unicode="/" horiz-adv-x="526" d="M0 -41l393 1448h133l-393 -1448h-133z" />
<glyph unicode="0" horiz-adv-x="1062" d="M88 682q0 105 14.5 202.5t48.5 190t83.5 160.5t126.5 109.5t171 41.5t170 -41t126 -109.5t84 -161t48.5 -190t14.5 -202.5q0 -104 -14.5 -202t-48 -191t-83.5 -161.5t-126.5 -110.5t-170.5 -42t-171 42t-126.5 110.5t-83.5 161.5t-48.5 191t-14.5 202zM287 682 q0 -532 245 -532q70 0 120 44.5t76 123.5t37 167.5t11 196.5q0 530 -244 530q-245 0 -245 -530z" />
<glyph unicode="1" horiz-adv-x="684" d="M27 1010l348 356h170v-1366h-193v1112l-211 -223z" />
<glyph unicode="2" horiz-adv-x="1019" d="M84 1165q150 221 414 221q174 0 289.5 -104t115.5 -281q0 -55 -12 -107.5t-45.5 -116.5t-67 -116.5t-104 -141.5t-126.5 -155.5t-163 -191.5h524v-172h-807v158q329 360 418 468q139 170 171 276q14 49 14 99q0 97 -60.5 154t-148.5 57q-181 0 -289 -165z" />
<glyph unicode="3" horiz-adv-x="993" d="M53 201l125 118q49 -78 125 -123.5t168 -45.5q116 0 176 63.5t60 173.5q0 119 -68.5 172t-181.5 53q-95 0 -113 -2v176q18 -2 109 -2q106 0 170.5 53.5t64.5 155.5q0 107 -60.5 163t-162.5 56q-163 0 -277 -153l-116 110q66 102 170.5 159.5t234.5 57.5q183 0 294.5 -94 t111.5 -270q0 -119 -73 -205.5t-175 -109.5q103 -16 184.5 -108t81.5 -228q0 -176 -113.5 -286t-310.5 -110q-143 0 -253 63t-171 163z" />
<glyph unicode="4" horiz-adv-x="976" d="M45 334v166l490 866h249v-860h146v-172h-146v-334h-194v334h-545zM223 506h367v653z" />
<glyph unicode="5" horiz-adv-x="1026" d="M98 197l125 120q104 -167 287 -167q105 0 169 79.5t64 192.5q0 132 -59.5 204t-163.5 72q-72 0 -129 -28.5t-110 -94.5l-144 46v745h731v-172h-536v-442q40 52 106.5 84t145.5 32q155 0 256.5 -116.5t101.5 -323.5q0 -198 -118.5 -325.5t-307.5 -127.5q-147 0 -247 56.5 t-171 165.5z" />
<glyph unicode="6" horiz-adv-x="1026" d="M88 682q0 145 29 269.5t86.5 223t152.5 155t217 56.5q104 0 188 -43.5t140 -119.5l-102 -142q-42 66 -94 98.5t-130 32.5q-73 0 -130.5 -43.5t-91 -116.5t-51 -161t-17.5 -184v-35q40 79 121 135.5t178 56.5q158 0 261 -114t103 -324q0 -122 -47.5 -224t-141.5 -164.5 t-218 -62.5q-98 0 -176.5 38.5t-129.5 103.5t-84.5 157t-48 192.5t-14.5 215.5zM287 508q3 -49 11.5 -94t26.5 -95t43.5 -86t67.5 -59.5t94 -23.5q106 0 163 81t57 189q0 142 -61.5 209t-160.5 67q-73 0 -136 -53t-105 -135z" />
<glyph unicode="7" horiz-adv-x="890" d="M49 1194v172h795v-135l-432 -1231h-211l424 1194h-576z" />
<glyph unicode="8" horiz-adv-x="1017" d="M84 340q0 124 79 223t189 142q-105 39 -176.5 124.5t-71.5 206.5q0 87 34 156t92.5 110.5t129.5 62.5t150 21q78 0 149 -21t129 -62.5t92.5 -110.5t34.5 -156q0 -121 -72.5 -206t-178.5 -125q110 -43 190 -142t80 -223q0 -169 -118 -267t-306 -98q-191 0 -308.5 98 t-117.5 267zM281 365q0 -100 65 -157.5t164 -57.5q96 0 161.5 58t65.5 157q0 58 -27 108.5t-66 81.5t-74.5 49t-59.5 21q-25 -3 -61 -21t-75 -49t-66 -81.5t-27 -108.5zM299 1008q0 -44 17 -82t41.5 -62.5t55.5 -44t54 -29t43 -14.5q19 5 41.5 14.5t53.5 29t55.5 44 t41.5 62.5t17 82q0 94 -57.5 149t-151.5 55q-96 0 -153.5 -55t-57.5 -149z" />
<glyph unicode="9" horiz-adv-x="1026" d="M78 938q0 122 47.5 223.5t141.5 164.5t218 63q98 0 176 -38.5t129.5 -104t86 -156.5t49 -192t14.5 -216q0 -145 -29.5 -270t-87.5 -223.5t-153 -155t-217 -56.5q-105 0 -188.5 43.5t-137.5 120.5l100 140q42 -64 95 -96.5t129 -32.5q75 0 133 43.5t91 117t49.5 160 t16.5 182.5v39q-40 -79 -121 -136.5t-176 -57.5q-76 0 -142 28t-116 81.5t-79 138t-29 190.5zM276 944q0 -142 62 -209t158 -67q77 0 140 53t101 135q-2 48 -9.5 94t-25.5 95t-43.5 85.5t-67 60t-93.5 23.5q-73 0 -125 -41.5t-74.5 -101t-22.5 -127.5z" />
<glyph unicode=":" horiz-adv-x="481" d="M117 102q0 51 37 87t88 36q50 0 86.5 -36t36.5 -87t-36.5 -86.5t-86.5 -35.5q-51 0 -88 35.5t-37 86.5zM117 881q0 51 37 87t88 36q50 0 86.5 -36t36.5 -87t-36.5 -87t-86.5 -36q-51 0 -88 36t-37 87z" />
<glyph unicode=";" horiz-adv-x="481" d="M117 106q0 50 35 85.5t86 35.5q58 0 97.5 -45t39.5 -121q0 -95 -48 -181t-126 -142l-84 69q50 31 90 86t47 105q-8 -4 -29 -4q-46 0 -77 31.5t-31 80.5zM117 881q0 51 37 87t88 36q50 0 86.5 -36t36.5 -87q0 -49 -36.5 -86t-86.5 -37q-51 0 -88 36.5t-37 86.5z" />
<glyph unicode="&#x3c;" horiz-adv-x="901" d="M59 623v125l783 368v-141l-641 -291l641 -287v-141z" />
<glyph unicode="=" horiz-adv-x="901" d="M59 428v117h783v-117h-783zM59 821v119h783v-119h-783z" />
<glyph unicode="&#x3e;" horiz-adv-x="901" d="M59 256v141l639 287l-639 291v141l783 -368v-125z" />
<glyph unicode="?" horiz-adv-x="794" d="M51 1229q63 77 152.5 118.5t193.5 41.5q157 0 252.5 -88t95.5 -220q0 -45 -11.5 -86.5t-25 -69t-42.5 -62t-45.5 -50.5t-51.5 -49q-37 -37 -51 -52t-38 -46t-33 -59t-9 -60q0 -61 43 -101l-147 -59q-66 69 -66 172q0 46 11.5 85t38 75t45.5 56t57 56q64 57 96.5 105.5 t32.5 114.5q0 67 -48.5 116.5t-131.5 49.5q-128 0 -217 -113zM270 102q0 51 37 87t88 36t87 -36t36 -87t-36 -86.5t-87 -35.5t-88 35.5t-37 86.5z" />
<glyph unicode="@" horiz-adv-x="1425" d="M72 471q0 162 61.5 316t163 268.5t240 184t284.5 69.5q236 0 384.5 -161t148.5 -411q0 -246 -105 -404.5t-237 -158.5q-75 0 -121.5 43t-52.5 109l-2 14q-50 -73 -120 -119.5t-151 -46.5q-111 0 -181.5 76.5t-70.5 220.5q0 138 57 265t156.5 206.5t214.5 79.5 q76 0 128 -41.5t77 -108.5l23 117h159l-116 -547q-4 -20 -4 -47q0 -96 73 -96q28 0 60.5 27t64 77.5t52 138t20.5 193.5q0 229 -127 364.5t-334 135.5q-133 0 -258 -65t-215 -170.5t-144.5 -244.5t-54.5 -282q0 -240 137.5 -393.5t358.5 -153.5q171 0 332 115l37 -55 q-178 -129 -379 -129q-247 0 -403 171t-156 443zM479 487q0 -85 38.5 -134.5t107.5 -49.5q127 0 231 162l64 293q-16 55 -54 95t-98 40q-82 0 -150 -65t-103.5 -157.5t-35.5 -183.5z" />
<glyph unicode="A" d="M10 0l408 1366h233l410 -1366h-211l-80 289h-469l-80 -289h-211zM342 461h387l-194 694z" />
<glyph unicode="B" horiz-adv-x="1081" d="M137 0v1366h486q162 0 253 -96.5t91 -251.5q0 -124 -58.5 -205.5t-152.5 -107.5q99 -15 166 -112.5t67 -223.5q0 -168 -91 -268.5t-261 -100.5h-500zM332 172h258q97 0 147.5 57.5t50.5 161.5q0 95 -50.5 157t-147.5 62h-258v-438zM332 782h250q91 0 137.5 56.5 t46.5 148.5q0 93 -46.5 150t-137.5 57h-250v-412z" />
<glyph unicode="C" horiz-adv-x="1105" d="M88 682q0 205 65.5 365t189.5 251t288 91q275 0 418 -285l-162 -74q-88 184 -256 184q-156 0 -250 -149t-94 -383t94 -383t250 -149q88 0 153.5 54.5t102.5 145.5l164 -74q-30 -64 -66 -114t-86 -94.5t-118 -68.5t-150 -24q-164 0 -288 91t-189.5 251t-65.5 365z" />
<glyph unicode="D" horiz-adv-x="1173" d="M137 0v1366h385q132 0 239 -51.5t177.5 -143t108.5 -216.5t38 -273t-37.5 -273t-107.5 -216t-177 -142t-239 -51h-387zM332 172h190q174 0 268.5 141t94.5 369q0 231 -93.5 371.5t-269.5 140.5h-190v-1022z" />
<glyph unicode="E" horiz-adv-x="954" d="M137 0v1366h725v-172h-530v-412h516v-172h-516v-438h530v-172h-725z" />
<glyph unicode="F" horiz-adv-x="935" d="M137 0v1366h725v-172h-530v-412h516v-172h-516v-610h-195z" />
<glyph unicode="G" horiz-adv-x="1165" d="M88 682q0 318 149.5 512.5t393.5 194.5q279 0 420 -275l-158 -78q-91 178 -262 178q-154 0 -249 -145.5t-95 -386.5q0 -239 95 -387t249 -148q76 0 139 30.5t104 76.5v287h-307v172h492v-533q-167 -207 -428 -207q-244 0 -393.5 196t-149.5 513z" />
<glyph unicode="H" horiz-adv-x="1193" d="M137 0v1366h195v-578h530v578h197v-1366h-197v616h-530v-616h-195z" />
<glyph unicode="I" horiz-adv-x="468" d="M137 0v1366h195v-1366h-195z" />
<glyph unicode="J" horiz-adv-x="827" d="M16 94l82 152q83 -96 191 -96q98 0 152.5 57t54.5 162v997h194v-1004q0 -192 -105 -289.5t-280 -97.5q-176 0 -289 119z" />
<glyph unicode="K" horiz-adv-x="1069" d="M137 0v1366h195v-684l450 684h230l-451 -647l488 -719h-234l-375 584l-108 -162v-422h-195z" />
<glyph unicode="L" horiz-adv-x="876" d="M137 0v1366h195v-1194h485v-172h-680z" />
<glyph unicode="M" horiz-adv-x="1429" d="M137 0v1366h269l309 -901l313 901h264v-1366h-192v1008l-346 -1008h-78l-344 1008v-1008h-195z" />
<glyph unicode="N" horiz-adv-x="1191" d="M137 0v1366h197l526 -928v928h195v-1366h-187l-536 950v-950h-195z" />
<glyph unicode="O" horiz-adv-x="1241" d="M88 682q0 201 61 360t182.5 253t286.5 94q166 0 288.5 -94t184.5 -253t62 -360t-62 -360t-184.5 -253t-288.5 -94q-165 0 -286.5 94t-182.5 253t-61 360zM287 682q0 -151 37 -270t113.5 -190.5t180.5 -71.5t181 71.5t115 191t38 269.5q0 152 -38 271.5t-114.5 190 t-181.5 70.5q-156 0 -243.5 -149t-87.5 -383z" />
<glyph unicode="P" horiz-adv-x="1024" d="M137 0v1366h441q95 0 170.5 -33.5t123 -91.5t72.5 -132.5t25 -160.5q0 -114 -43 -207.5t-133.5 -152t-214.5 -58.5h-246v-530h-195zM332 702h223q97 0 155 68t58 178t-58 178t-155 68h-223v-492z" />
<glyph unicode="Q" horiz-adv-x="1241" d="M88 682q0 201 61 360t182.5 253t286.5 94q166 0 288.5 -94t184.5 -253t62 -360q0 -165 -43.5 -305t-126.5 -236l82 -125l-137 -88l-70 109q-111 -62 -240 -62q-165 0 -286.5 94t-182.5 253t-61 360zM287 682q0 -151 37 -270t113.5 -190.5t180.5 -71.5q81 0 142 40 l-148 234l138 86l122 -195q80 145 80 367q0 152 -38 271.5t-114.5 190t-181.5 70.5q-156 0 -243.5 -149t-87.5 -383z" />
<glyph unicode="R" horiz-adv-x="1067" d="M137 0v1366h445q172 0 279.5 -114t107.5 -302q0 -87 -22.5 -158t-61.5 -116.5t-84 -73.5t-96 -39l276 -563h-219l-248 530h-182v-530h-195zM332 702h223q97 0 155 68t58 178t-58 178t-155 68h-223v-492z" />
<glyph unicode="S" horiz-adv-x="978" d="M53 147l101 152q57 -67 141 -108t180 -41q113 0 173.5 57.5t60.5 144.5q0 40 -15 74t-35.5 58t-60 49.5t-68.5 40t-81 38.5q-143 65 -200 106q-152 108 -157 287v13q0 160 114.5 265.5t295.5 105.5q231 0 377 -146l-99 -147q-109 118 -284 118q-90 0 -147.5 -51 t-57.5 -135q0 -24 8 -46.5t17.5 -39t32 -35.5t36.5 -30t47.5 -28.5t49 -25t55.5 -26.5q49 -23 75.5 -36t71.5 -39t71 -47t58.5 -55.5t49.5 -69.5t29.5 -83t12.5 -102q0 -80 -27 -150t-79 -124t-134.5 -85t-187.5 -31q-265 0 -424 172z" />
<glyph unicode="T" horiz-adv-x="929" d="M49 1194v172h832v-172h-320v-1194h-194v1194h-318z" />
<glyph unicode="U" horiz-adv-x="1187" d="M137 451v915h195v-917q0 -147 68.5 -224.5t193.5 -77.5t193.5 77.5t68.5 224.5v917h195v-915q0 -227 -121 -351.5t-336 -124.5t-336 124.5t-121 351.5z" />
<glyph unicode="V" d="M10 1366h211l314 -1135l315 1135h211l-410 -1366h-233z" />
<glyph unicode="W" horiz-adv-x="1495" d="M27 1366h209l210 -1067l222 1067h159l224 -1067l209 1067h208l-305 -1366h-207l-208 1030l-209 -1030h-205z" />
<glyph unicode="X" horiz-adv-x="1069" d="M10 0l406 698l-383 668h225l277 -514l274 514h227l-381 -668l404 -698h-225l-299 543l-299 -543h-226z" />
<glyph unicode="Y" horiz-adv-x="1044" d="M4 1366h217l301 -608l303 608h215l-419 -793v-573h-195v573z" />
<glyph unicode="Z" horiz-adv-x="958" d="M80 0v164l551 1030h-551v172h784v-160l-553 -1034h568v-172h-799z" />
<glyph unicode="[" horiz-adv-x="452" d="M78 -389v1778h340v-125h-207v-1528h207v-125h-340z" />
<glyph unicode="\" horiz-adv-x="526" d="M2 1407h131l393 -1448h-131z" />
<glyph unicode="]" horiz-adv-x="452" d="M35 -264h205v1528h-205v125h340v-1778h-340v125z" />
<glyph unicode="^" horiz-adv-x="784" d="M39 682l289 684h131l286 -684h-135l-219 549l-215 -549h-137z" />
<glyph unicode="_" horiz-adv-x="864" d="M-6 -82h876v-125h-876v125z" />
<glyph unicode="`" horiz-adv-x="397" d="M0 1434h170l227 -295h-123z" />
<glyph unicode="a" horiz-adv-x="940" d="M76 305q0 150 87.5 237t213.5 87q80 0 148.5 -31t111.5 -92v158q0 96 -51 148t-146 52q-134 0 -247 -116l-72 122q138 144 348 144q160 0 252 -81t92 -249v-684h-176v102q-45 -62 -114 -94.5t-146 -32.5q-126 0 -213.5 89.5t-87.5 240.5zM254 301q0 -88 50 -145.5 t134 -57.5q61 0 115 31.5t84 87.5v168q-30 56 -84 87.5t-115 31.5q-84 0 -134 -57.5t-50 -145.5z" />
<glyph unicode="b" horiz-adv-x="995" d="M127 0v1366h176v-514q43 78 112 120t144 42q166 0 262.5 -143t96.5 -377q0 -238 -96.5 -378.5t-262.5 -140.5q-75 0 -144 43t-112 117v-135h-176zM303 279q29 -62 87.5 -105t119.5 -43q74 0 126 49t75.5 129.5t23.5 184.5t-23.5 184.5t-75.5 130t-126 49.5 q-62 0 -120 -44t-87 -107v-428z" />
<glyph unicode="c" horiz-adv-x="841" d="M78 496q0 225 116 371.5t306 146.5t293 -133l-93 -119q-72 96 -184 96q-120 0 -188 -103t-68 -259t68 -260.5t188 -104.5q110 0 184 96l93 -118q-101 -134 -293 -134q-190 0 -306 147t-116 374z" />
<glyph unicode="d" horiz-adv-x="995" d="M78 494q0 234 96.5 377t261.5 143q75 0 144 -42t114 -120v514h174v-1366h-174v135q-44 -74 -113.5 -117t-144.5 -43q-165 0 -261.5 141t-96.5 378zM260 494q0 -159 58 -261t167 -102q63 0 121.5 43t87.5 105v430q-29 62 -87.5 105.5t-121.5 43.5q-109 0 -167 -102 t-58 -262z" />
<glyph unicode="e" horiz-adv-x="964" d="M78 496q0 144 49 261t144 187t221 70q128 0 220 -71t136.5 -188t44.5 -266v-51h-635q6 -140 77.5 -228.5t194.5 -88.5q61 0 123 30.5t105 84.5l90 -107q-135 -154 -334 -154t-317.5 144.5t-118.5 376.5zM256 563h465q-1 55 -14 106t-39 97t-72.5 74t-106.5 28 q-59 0 -104.5 -28.5t-72 -75t-40.5 -97.5t-16 -104z" />
<glyph unicode="f" horiz-adv-x="540" d="M37 836v153h129v107q0 136 69.5 213t184.5 77q80 0 139 -30l-39 -135q-29 16 -63 16q-54 0 -84.5 -37t-30.5 -104v-107h166v-153h-166v-836h-176v836h-129z" />
<glyph unicode="g" horiz-adv-x="995" d="M78 504q0 233 96 371.5t262 138.5q75 0 144 -42t112 -120v137h176v-971q0 -117 -33.5 -201.5t-93 -130.5t-129 -66.5t-153.5 -20.5q-106 0 -187.5 28.5t-152.5 96.5l78 137q98 -113 256 -113q105 0 172 63.5t67 194.5v152q-43 -75 -112 -119.5t-144 -44.5 q-166 0 -262 137t-96 373zM260 504q0 -159 57.5 -256.5t167.5 -97.5q63 0 121.5 43.5t85.5 105.5v410q-27 62 -85.5 105.5t-121.5 43.5q-110 0 -167.5 -98t-57.5 -256z" />
<glyph unicode="h" horiz-adv-x="972" d="M127 0v1366h176v-514q45 67 124 114.5t165 47.5q254 0 254 -266v-748h-176v692q0 88 -38.5 127t-111.5 39q-65 0 -124.5 -43t-92.5 -104v-711h-176z" />
<glyph unicode="i" horiz-adv-x="430" d="M100 1237q0 47 34.5 81t80.5 34q47 0 81 -34t34 -81t-34 -81t-81 -34q-46 0 -80.5 34t-34.5 81zM127 0v989h176v-989h-176z" />
<glyph unicode="j" horiz-adv-x="430" d="M-51 -389l22 149q24 -8 49 -8q49 0 78 32t29 99v1106h176v-1106q0 -138 -66 -211t-192 -73q-52 0 -96 12zM100 1237q0 47 34.5 81t80.5 34q47 0 81 -34t34 -81t-34 -81t-81 -34q-46 0 -80.5 34t-34.5 81z" />
<glyph unicode="k" horiz-adv-x="915" d="M127 0v1366h176v-889l379 512h207l-336 -444l338 -545h-207l-252 430l-129 -170v-260h-176z" />
<glyph unicode="l" horiz-adv-x="430" d="M127 0v1366h176v-1366h-176z" />
<glyph unicode="m" horiz-adv-x="1447" d="M127 0v989h176v-137q33 60 110.5 111t161.5 51q94 0 153.5 -46.5t74.5 -129.5q37 71 116 123.5t164 52.5q236 0 236 -258v-756h-174v702q0 156 -131 156q-61 0 -117 -43.5t-86 -103.5v-711h-174v702q0 156 -133 156q-59 0 -114 -43.5t-87 -103.5v-711h-176z" />
<glyph unicode="n" horiz-adv-x="972" d="M127 0v989h176v-137q45 67 123 114.5t164 47.5q254 0 254 -269v-745h-174v688q0 170 -150 170q-67 0 -125.5 -42.5t-91.5 -104.5v-711h-176z" />
<glyph unicode="o" horiz-adv-x="987" d="M78 496q0 106 27 199t78.5 164.5t131.5 113t179 41.5q131 0 227 -72t142 -187.5t46 -258.5t-46 -259t-142 -189t-227 -73q-99 0 -179 42t-131.5 114t-78.5 165.5t-27 199.5zM262 496q0 -154 59.5 -259.5t172.5 -105.5q78 0 132 52.5t77.5 133t23.5 179.5 q0 98 -23.5 177.5t-77.5 132t-132 52.5q-77 0 -130.5 -52.5t-77.5 -132t-24 -177.5z" />
<glyph unicode="p" horiz-adv-x="995" d="M127 -377v1366h176v-135q43 74 112 117t144 43q166 0 262.5 -140.5t96.5 -377.5t-96.5 -379t-262.5 -142q-76 0 -144.5 42.5t-111.5 121.5v-516h-176zM303 281q29 -62 87.5 -106t119.5 -44q109 0 167 102.5t58 262.5q0 159 -58 260.5t-167 101.5q-62 0 -120.5 -42.5 t-86.5 -104.5v-430z" />
<glyph unicode="q" horiz-adv-x="995" d="M78 496q0 238 96 378t262 140q75 0 144 -43t112 -117v135h176v-1366h-176v516q-43 -79 -111.5 -121.5t-144.5 -42.5q-166 0 -262 142t-96 379zM260 496q0 -160 58 -262.5t167 -102.5q63 0 121.5 44t85.5 106v430q-27 62 -85.5 104.5t-121.5 42.5q-109 0 -167 -101.5 t-58 -260.5z" />
<glyph unicode="r" horiz-adv-x="612" d="M127 0v989h176v-151q48 79 120.5 126.5t156.5 47.5v-178q-24 6 -52 6q-64 0 -128.5 -44.5t-96.5 -105.5v-690h-176z" />
<glyph unicode="s" horiz-adv-x="806" d="M49 115l82 125q47 -54 117.5 -88.5t146.5 -34.5q81 0 128.5 39t47.5 104q0 27 -11.5 49.5t-26.5 38t-45.5 32t-51.5 25.5t-61 25q-39 15 -60 23t-57.5 25.5t-57 32t-47 39t-40 50.5t-23.5 62t-10 77q0 118 88.5 196.5t239.5 78.5q189 0 313 -127l-78 -121 q-38 48 -99.5 77t-133.5 29q-73 0 -118.5 -36t-45.5 -91q0 -29 13 -51.5t40 -40.5t54 -30.5t68 -29.5q9 -3 13 -5q38 -14 61 -23t59.5 -26.5t58.5 -33.5t49 -41.5t41.5 -53t25 -65.5t10.5 -81q0 -128 -93.5 -208.5t-248.5 -80.5q-223 0 -348 140z" />
<glyph unicode="t" horiz-adv-x="559" d="M31 836v153h131v271h174v-271h166v-153h-166v-592q0 -113 78 -113q52 0 84 35l45 -131q-60 -60 -168 -60q-213 0 -213 234v627h-131z" />
<glyph unicode="u" horiz-adv-x="972" d="M127 242v747h176v-692q0 -88 38.5 -127t111.5 -39q66 0 124.5 41t92.5 102v715h174v-989h-174v133q-48 -68 -124 -113t-165 -45q-254 0 -254 267z" />
<glyph unicode="v" horiz-adv-x="858" d="M8 989h189l231 -780l236 780h186l-326 -989h-190z" />
<glyph unicode="w" horiz-adv-x="1335" d="M20 989h183l182 -756l199 756h164l200 -756l185 756h184l-266 -989h-183l-200 760l-201 -760h-182z" />
<glyph unicode="x" horiz-adv-x="849" d="M18 0l299 504l-282 485h192l199 -358l197 358h192l-283 -485l299 -504h-194l-211 379l-215 -379h-193z" />
<glyph unicode="y" horiz-adv-x="858" d="M8 989h189l231 -776l236 776h186l-393 -1186q-37 -112 -102 -158t-167 -46q-60 0 -104 14l29 156q27 -15 63 -15q44 0 70.5 20t44.5 70l47 136z" />
<glyph unicode="z" horiz-adv-x="804" d="M84 0v135l410 701h-410v153h629v-131l-412 -704h420v-154h-637z" />
<glyph unicode="{" horiz-adv-x="487" d="M10 444v111q52 0 79.5 40t27.5 101v437q0 113 72 184.5t169 71.5h95v-125h-95q-45 0 -76.5 -37t-31.5 -94v-451q0 -143 -92 -182q92 -39 92 -183v-450q0 -56 31.5 -93.5t76.5 -37.5h95v-125h-95q-97 0 -169 71t-72 185v436q0 61 -27.5 101t-79.5 40z" />
<glyph unicode="|" horiz-adv-x="399" d="M137 -41v1448h125v-1448h-125z" />
<glyph unicode="}" horiz-adv-x="487" d="M35 -264h92q45 0 77 37.5t32 93.5v450q0 143 94 183q-94 40 -94 182v451q0 57 -32 94t-77 37h-92v125h92q98 0 171 -71.5t73 -184.5v-437q0 -61 27.5 -101t78.5 -40v-111q-51 0 -78.5 -40t-27.5 -101v-436q0 -114 -73 -185t-171 -71h-92v125z" />
<glyph unicode="~" horiz-adv-x="927" d="M55 874q5 63 11.5 114.5t18.5 111t31 104t45.5 82.5t65.5 58t88 20q33 0 59.5 -9t46.5 -29.5t33.5 -38.5t26.5 -52t18.5 -52.5t16.5 -56.5t18 -58t18.5 -44t26 -34.5t33.5 -10.5q60 0 88.5 93t44.5 294l127 -14q-5 -64 -11 -114.5t-18 -110.5t-31 -104t-45.5 -82.5 t-66 -58.5t-88.5 -20q-28 0 -51.5 8.5t-40.5 19t-33 32.5t-25 37.5t-20.5 46t-15.5 45t-14 47.5q-11 37 -18 58t-18.5 44.5t-26.5 34t-34 10.5q-59 0 -88 -93.5t-45 -291.5z" />
<glyph unicode="&#xa1;" horiz-adv-x="481" d="M117 887q0 50 37 86.5t88 36.5q50 0 86.5 -37t36.5 -86q0 -51 -36.5 -87t-86.5 -36q-51 0 -88 36t-37 87zM133 -377l35 971h147l35 -971h-217z" />
<glyph unicode="&#xa2;" horiz-adv-x="841" d="M78 496q0 203 96 344.5t258 167.5v149h135v-147q139 -21 226 -129l-93 -119q-57 74 -133 92v-719q76 18 133 92l93 -118q-85 -110 -226 -129v-185h-135v187q-162 26 -258 167.5t-96 346.5zM260 496q0 -126 45 -221t127 -128v695q-83 -33 -127.5 -127t-44.5 -219z" />
<glyph unicode="&#xa3;" horiz-adv-x="942" d="M51 553v121h160q-39 58 -57.5 90.5t-38 94t-19.5 126.5q0 168 119.5 284.5t286.5 116.5q132 0 227.5 -61.5t136.5 -177.5l-155 -80q-23 69 -73.5 113.5t-121.5 44.5q-90 0 -149.5 -66t-59.5 -178q0 -54 14 -103.5t29.5 -79t44.5 -73.5q24 -38 31 -51h229v-121h-180 q8 -33 8 -82q0 -84 -38.5 -154.5t-100.5 -117.5q46 18 92 18q57 0 133 -37q72 -33 115 -33q52 0 95.5 22t66.5 52l72 -153q-36 -41 -102 -68t-144 -27q-40 0 -77 9t-53.5 16.5t-49.5 24.5q-71 40 -132 40q-82 0 -200 -77l-68 139q100 54 158.5 135t58.5 168q0 67 -28 125 h-230z" />
<glyph unicode="&#xa4;" horiz-adv-x="1034" d="M27 229l151 152q-76 130 -76 301q0 175 78 303l-153 154l106 106l148 -149q98 73 237 73q138 0 236 -73l147 149l107 -108l-154 -154q78 -128 78 -301q0 -175 -78 -303l154 -152l-107 -106l-147 145q-98 -73 -236 -73t-239 75l-146 -143zM276 682q0 -89 25.5 -162 t81.5 -120.5t135 -47.5q116 0 178 95.5t62 234.5q0 138 -62 233t-178 95t-179 -95.5t-63 -232.5z" />
<glyph unicode="&#xa5;" horiz-adv-x="1044" d="M4 1366h217l301 -608l303 608h215l-358 -674h315v-119h-376v-206h376v-119h-376v-248h-195v248h-381v119h381v206h-381v119h317z" />
<glyph unicode="&#xa6;" horiz-adv-x="399" d="M137 -41v647h125v-647h-125zM137 760v647h125v-647h-125z" />
<glyph unicode="&#xa7;" horiz-adv-x="811" d="M51 -23l80 115q45 -52 112.5 -90.5t147.5 -38.5q79 0 129.5 43t50.5 111q0 30 -12.5 55t-27.5 41t-48 35t-53.5 28t-64.5 27q-39 15 -58.5 23.5t-55 26t-55 32t-45 38.5t-39 49t-23 59.5t-9.5 74.5q0 89 55 154.5t141 89.5q-101 53 -148.5 118t-47.5 152q0 116 89.5 191 t229.5 75q205 0 320 -129l-76 -106q-92 106 -233 106q-72 0 -118 -37.5t-46 -97.5q0 -26 11 -48.5t24.5 -37t43.5 -31.5t48.5 -25t58.5 -25q8 -3 12 -5q40 -15 60.5 -23.5t57 -26.5t57 -33t47 -39.5t40 -51t23.5 -62.5t10 -77q0 -81 -42 -147t-124 -105q83 -48 124.5 -109.5 t41.5 -150.5q0 -129 -96 -210t-246 -81q-213 0 -346 143zM242 631q0 -66 50.5 -108.5t153.5 -84.5q127 58 127 168q0 75 -44 118.5t-115 72.5q-172 -39 -172 -166z" />
<glyph unicode="&#xa8;" horiz-adv-x="559" d="M-6 1239q0 43 30.5 73.5t73.5 30.5t73 -30.5t30 -73.5t-30 -72.5t-73 -29.5t-73.5 29.5t-30.5 72.5zM358 1239q0 43 31 73.5t72 30.5q43 0 73.5 -30.5t30.5 -73.5t-30.5 -72.5t-73.5 -29.5q-42 0 -72.5 30t-30.5 72z" />
<glyph unicode="&#xa9;" horiz-adv-x="1593" d="M90 682q0 192 95 355t258 257.5t354 94.5q144 0 275 -56t225 -150.5t150 -225.5t56 -275q0 -143 -56 -274t-150 -226t-225 -151t-275 -56q-191 0 -354 95t-258 258t-95 354zM156 682q0 -130 51 -248.5t137 -204.5t204.5 -137t248.5 -51t248.5 51t204.5 137t137 204.5 t51 248.5t-51 248.5t-137 204.5t-204.5 137t-248.5 51t-248.5 -51t-204.5 -137t-137 -204.5t-51 -248.5zM377 684q0 187 123.5 310.5t302.5 123.5q185 0 299 -133l-53 -53q-40 54 -107 85.5t-139 31.5q-142 0 -245 -102.5t-103 -262.5q0 -157 103.5 -262t244.5 -105 q73 0 139.5 32.5t106.5 86.5l55 -53q-118 -137 -301 -137q-178 0 -302 126.5t-124 311.5z" />
<glyph unicode="&#xaa;" horiz-adv-x="681" d="M63 864q0 99 59.5 155t145.5 56q116 0 178 -82v103q0 62 -35.5 94.5t-95.5 32.5q-97 0 -168 -82l-55 88q98 98 244 98q113 0 177.5 -56t64.5 -177v-426h-132v67q-63 -84 -178 -84q-86 0 -145.5 57.5t-59.5 155.5zM197 866q0 -57 32 -92t86 -35q88 0 131 72v109 q-42 71 -131 71q-53 0 -85.5 -35t-32.5 -90z" />
<glyph unicode="&#xab;" horiz-adv-x="825" d="M61 498l256 362h158l-256 -362l256 -369h-158zM350 498l256 362h158l-256 -362l256 -369h-158z" />
<glyph unicode="&#xac;" horiz-adv-x="907" d="M59 821v119h783v-512h-123v393h-660z" />
<glyph unicode="&#xad;" horiz-adv-x="548" d="M61 420v151h426v-151h-426z" />
<glyph unicode="&#xae;" horiz-adv-x="1011" d="M72 952q0 181 127 307.5t307 126.5q119 0 219 -57.5t157.5 -157.5t57.5 -219q0 -180 -126.5 -307t-307.5 -127q-180 0 -307 127t-127 307zM131 952q0 -154 110 -264t265 -110t264 110t109 264q0 156 -108.5 264.5t-264.5 108.5t-265.5 -108.5t-109.5 -264.5zM340 702v498 h203q65 0 111 -42t46 -109q0 -72 -46 -110t-81 -38l134 -199h-82l-129 197h-90v-197h-66zM406 961h137q35 0 62.5 25.5t27.5 62.5q0 40 -27.5 66t-62.5 26h-137v-180z" />
<glyph unicode="&#xaf;" horiz-adv-x="628" d="M0 1167v109h629v-109h-629z" />
<glyph unicode="&#xb0;" horiz-adv-x="604" d="M45 1130q0 106 75 181t179 75q106 0 181 -75t75 -181q0 -105 -75 -179t-181 -74q-105 0 -179.5 74t-74.5 179zM154 1130q0 -61 42.5 -104t102.5 -43q62 0 106 43t44 104q0 62 -44.5 106t-105.5 44q-60 0 -102.5 -44t-42.5 -106z" />
<glyph unicode="&#xb1;" horiz-adv-x="901" d="M59 41v117h783v-117h-783zM59 649v117h328v358h127v-358h328v-117h-328v-370h-127v370h-328z" />
<glyph unicode="&#xb2;" horiz-adv-x="679" d="M68 1561q100 133 272 133q117 0 192.5 -61t75.5 -173q0 -96 -74.5 -196t-265.5 -289h344v-113h-530v103q102 97 155.5 149.5t107 109.5t76 91.5t36.5 69.5t14 69q0 59 -38.5 93t-96.5 34t-107.5 -28t-78.5 -74z" />
<glyph unicode="&#xb3;" horiz-adv-x="679" d="M59 981l82 84q33 -48 83 -76t108 -28q71 0 109 36t38 97q0 71 -45.5 102t-118.5 31q-59 0 -69 -2v112q12 -2 65 -2q72 0 114 30.5t42 92.5q0 60 -38.5 91.5t-102.5 31.5q-110 0 -179 -96l-79 80q44 60 113 94.5t155 34.5q121 0 193.5 -57.5t72.5 -161.5q0 -73 -47 -125.5 t-111 -63.5q65 -8 117.5 -63t52.5 -138q0 -106 -74.5 -171.5t-203.5 -65.5q-94 0 -166 36.5t-111 96.5z" />
<glyph unicode="&#xb4;" horiz-adv-x="397" d="M0 1139l227 295h170l-274 -295h-123z" />
<glyph unicode="&#xb5;" horiz-adv-x="997" d="M127 -377v1366h176v-692q0 -85 40.5 -126.5t113.5 -41.5q64 0 121 41.5t92 103.5v715h174v-753q0 -105 76 -105q14 0 34 4l13 -149q-37 -11 -84 -11q-179 0 -207 175q-38 -77 -102 -126t-136 -49q-97 0 -135 62v-414h-176z" />
<glyph unicode="&#xb6;" horiz-adv-x="919" d="M55 1014q0 146 103.5 249t249.5 103h376v-1571h-100v1473h-178v-1473h-98v867q-146 0 -249.5 103t-103.5 249z" />
<glyph unicode="&#xb7;" horiz-adv-x="481" d="M117 502q0 50 36 86.5t87 36.5t88 -36.5t37 -86.5q0 -51 -37 -88t-88 -37t-87 37t-36 88z" />
<glyph unicode="&#xb8;" horiz-adv-x="389" d="M0 -332l41 82q66 -57 143 -57q43 0 75 22.5t32 59.5q0 65 -66 65q-40 0 -63 -30l-74 43l64 170h98l-53 -136q29 23 67 23q53 0 89 -38t36 -99q0 -74 -58 -120t-143 -46q-112 0 -188 61z" />
<glyph unicode="&#xb9;" horiz-adv-x="485" d="M25 1452l227 229h119v-819h-138v641l-129 -133z" />
<glyph unicode="&#xba;" horiz-adv-x="716" d="M68 989q0 143 78 240.5t212 97.5q136 0 213.5 -97.5t77.5 -240.5t-77.5 -240.5t-213.5 -97.5q-134 0 -212 97.5t-78 240.5zM205 989q0 -101 39 -165t114 -64t114.5 64.5t39.5 164.5t-39.5 162.5t-114.5 62.5t-114 -62.5t-39 -162.5z" />
<glyph unicode="&#xbb;" horiz-adv-x="825" d="M61 129l256 369l-256 362h158l256 -362l-256 -369h-158zM350 129l256 369l-256 362h158l256 -362l-256 -369h-158z" />
<glyph unicode="&#xbc;" horiz-adv-x="1417" d="M25 1137l227 229h119v-819h-138v641l-129 -133zM260 0l717 1366h108l-718 -1366h-107zM791 199v104l305 516h178v-510h94v-110h-94v-199h-135v199h-348zM920 309h219v373z" />
<glyph unicode="&#xbd;" horiz-adv-x="1488" d="M25 1137l227 229h119v-819h-138v641l-129 -133zM260 0l717 1366h108l-718 -1366h-107zM877 698q95 133 272 133q117 0 191.5 -60.5t74.5 -172.5q0 -41 -14.5 -82.5t-38.5 -81.5t-69.5 -93.5t-93 -103t-124.5 -124.5h346v-113h-532v102q238 225 313.5 317t75.5 173 q0 59 -38.5 93t-96.5 34q-57 0 -106.5 -28.5t-78.5 -74.5z" />
<glyph unicode="&#xbe;" horiz-adv-x="1558" d="M59 666l82 84q33 -48 83.5 -76.5t107.5 -28.5q71 0 109 36t38 97q0 71 -45.5 102t-118.5 31q-59 0 -69 -2v113q12 -2 65 -2q72 0 114 30.5t42 92.5q0 60 -38.5 91.5t-102.5 31.5q-110 0 -179 -97l-79 80q44 60 113 94.5t155 34.5q121 0 193.5 -57.5t72.5 -161.5 q0 -73 -47 -125t-111 -63q65 -8 117.5 -63t52.5 -138q0 -106 -75 -172t-203 -66q-94 0 -166 37.5t-111 96.5zM401 0l717 1366h109l-719 -1366h-107zM932 199v104l305 516h180v-510h94v-110h-94v-199h-137v199h-348zM1061 309h219v373z" />
<glyph unicode="&#xbf;" horiz-adv-x="686" d="M51 -98q0 45 11 86.5t25 70t41.5 62t45.5 51.5t51 49q46 43 69 68t43.5 66t20.5 83q0 28 -12.5 56t-32.5 45l148 59q65 -68 65 -172q0 -46 -12 -85.5t-37.5 -74t-45.5 -56t-56 -54.5q-43 -41 -65 -65.5t-43 -67.5t-21 -89q0 -67 48.5 -116t131.5 -49q129 0 219 110 l98 -125q-63 -75 -152.5 -115t-193.5 -40q-156 0 -251 86.5t-95 216.5zM276 887q0 50 36 86.5t87 36.5t88 -36.5t37 -86.5q0 -51 -37 -87t-88 -36t-87 36t-36 87z" />
<glyph unicode="&#xc0;" d="M10 0l408 1366h233l410 -1366h-211l-80 289h-469l-80 -289h-211zM240 1776h168l229 -295h-123zM342 461h387l-194 694z" />
<glyph unicode="&#xc1;" d="M10 0l408 1366h233l410 -1366h-211l-80 289h-469l-80 -289h-211zM342 461h387l-194 694zM436 1481l228 295h170l-275 -295h-123z" />
<glyph unicode="&#xc2;" d="M10 0l408 1366h233l410 -1366h-211l-80 289h-469l-80 -289h-211zM291 1481l162 295h163l168 -295h-108l-141 207l-136 -207h-108zM342 461h387l-194 694z" />
<glyph unicode="&#xc3;" d="M10 0l408 1366h233l410 -1366h-211l-80 289h-469l-80 -289h-211zM254 1489q0 124 46.5 199t133.5 75q26 0 47 -8.5t38.5 -27.5t25.5 -31.5t24 -38.5q17 -27 25 -38t22 -22.5t29 -11.5q34 0 55 41t21 125h98q0 -123 -46.5 -198.5t-133.5 -75.5q-26 0 -47 8t-39 28.5 t-25.5 30.5t-25.5 39q-12 21 -17 28.5t-15.5 21t-20 18t-21.5 4.5q-33 0 -54.5 -41.5t-21.5 -124.5h-98zM342 461h387l-194 694z" />
<glyph unicode="&#xc4;" d="M10 0l408 1366h233l410 -1366h-211l-80 289h-469l-80 -289h-211zM250 1581q0 43 30.5 74t73.5 31t73 -31t30 -74t-30 -72.5t-73 -29.5t-73.5 29.5t-30.5 72.5zM342 461h387l-194 694zM614 1581q0 43 31 74t72 31q43 0 73.5 -31t30.5 -74t-30.5 -72.5t-73.5 -29.5 q-42 0 -72.5 30t-30.5 72z" />
<glyph unicode="&#xc5;" d="M10 0l408 1366h233l410 -1366h-211l-80 289h-469l-80 -289h-211zM342 461h387l-194 694zM348 1606q0 78 55.5 134t133.5 56t133 -56t55 -134t-55 -134.5t-133 -56.5t-133.5 56.5t-55.5 134.5zM434 1606q0 -42 30.5 -72.5t72.5 -30.5q43 0 72.5 30t29.5 73t-29.5 72.5 t-72.5 29.5q-42 0 -72.5 -30t-30.5 -72z" />
<glyph unicode="&#xc6;" horiz-adv-x="1558" d="M14 0l648 1366h804v-172h-528v-412h514v-172h-514v-438h528v-172h-725v289h-385l-131 -289h-211zM428 461h313v694z" />
<glyph unicode="&#xc7;" horiz-adv-x="1105" d="M88 682q0 205 65.5 365t189.5 251t288 91q275 0 418 -285l-162 -74q-88 184 -256 184q-156 0 -250 -149t-94 -383t94 -383t250 -149q88 0 153.5 54.5t102.5 145.5l164 -74q-136 -286 -389 -301l-33 -79q27 22 67 22q53 0 89 -38t36 -99q0 -74 -57.5 -120t-142.5 -46 q-113 0 -189 61l41 82q66 -57 143 -57q43 0 75 22.5t32 59.5q0 65 -66 65q-40 0 -63 -30l-74 43l45 119q-145 18 -254 113t-166 247t-57 342z" />
<glyph unicode="&#xc8;" horiz-adv-x="954" d="M137 0v1366h725v-172h-530v-412h516v-172h-516v-438h530v-172h-725zM203 1776h168l229 -295h-123z" />
<glyph unicode="&#xc9;" horiz-adv-x="954" d="M137 0v1366h725v-172h-530v-412h516v-172h-516v-438h530v-172h-725zM399 1481l228 295h170l-275 -295h-123z" />
<glyph unicode="&#xca;" horiz-adv-x="954" d="M137 0v1366h725v-172h-530v-412h516v-172h-516v-438h530v-172h-725zM254 1481l162 295h166l168 -295h-109l-143 207l-136 -207h-108z" />
<glyph unicode="&#xcb;" horiz-adv-x="954" d="M137 0v1366h725v-172h-530v-412h516v-172h-516v-438h530v-172h-725zM215 1581q0 43 30.5 74t73.5 31t73 -31t30 -74t-30 -72.5t-73 -29.5t-73.5 29.5t-30.5 72.5zM580 1581q0 43 30.5 74t71.5 31q43 0 73.5 -31t30.5 -74t-30.5 -72.5t-73.5 -29.5q-42 0 -72 30t-30 72z " />
<glyph unicode="&#xcc;" horiz-adv-x="468" d="M-63 1776h169l228 -295h-123zM137 0v1366h195v-1366h-195z" />
<glyph unicode="&#xcd;" horiz-adv-x="468" d="M135 1481l230 295h167l-274 -295h-123zM137 0v1366h195v-1366h-195z" />
<glyph unicode="&#xce;" horiz-adv-x="468" d="M-10 1481l162 295h163l168 -295h-108l-142 207l-135 -207h-108zM137 0v1366h195v-1366h-195z" />
<glyph unicode="&#xcf;" horiz-adv-x="468" d="M-49 1581q0 43 30.5 74t73.5 31t74 -31t31 -74q0 -42 -31 -72t-74 -30t-73.5 29.5t-30.5 72.5zM137 0v1366h195v-1366h-195zM315 1581q0 43 31 74t74 31q42 0 73 -31t31 -74q0 -42 -31 -72t-73 -30q-43 0 -74 30t-31 72z" />
<glyph unicode="&#xd0;" horiz-adv-x="1222" d="M31 604v141h155v621h385q176 0 304.5 -89.5t193 -243t64.5 -351.5q0 -199 -64.5 -352t-193 -241.5t-304.5 -88.5h-385v604h-155zM381 172h190q173 0 268 141.5t95 368.5q0 151 -40 265t-123 180.5t-200 66.5h-190v-449h244v-141h-244v-432z" />
<glyph unicode="&#xd1;" horiz-adv-x="1191" d="M137 0v1366h197l526 -928v928h195v-1366h-187l-536 950v-950h-195zM309 1489q0 124 46.5 199t133.5 75q34 0 62.5 -18.5t41 -36t32.5 -51.5q34 -53 49 -63q13 -9 26 -9q34 0 55 41t21 125h98q0 -123 -47 -198.5t-135 -75.5q-26 0 -46 8t-38.5 28.5t-25.5 30.5t-25 39 q-12 21 -17 28.5t-15.5 21t-20 18t-21.5 4.5q-34 0 -54.5 -41t-20.5 -125h-99z" />
<glyph unicode="&#xd2;" horiz-adv-x="1241" d="M88 682q0 201 61 360t182.5 253t286.5 94q166 0 288.5 -94t184.5 -253t62 -360t-62 -360t-184.5 -253t-288.5 -94q-165 0 -286.5 94t-182.5 253t-61 360zM287 682q0 -151 37 -270t113.5 -190.5t180.5 -71.5t181 71.5t115 191t38 269.5q0 152 -38 271.5t-114.5 190 t-181.5 70.5q-156 0 -243.5 -149t-87.5 -383zM324 1776h168l229 -295h-123z" />
<glyph unicode="&#xd3;" horiz-adv-x="1241" d="M88 682q0 201 61 360t182.5 253t286.5 94q166 0 288.5 -94t184.5 -253t62 -360t-62 -360t-184.5 -253t-288.5 -94q-165 0 -286.5 94t-182.5 253t-61 360zM287 682q0 -151 37 -270t113.5 -190.5t180.5 -71.5t181 71.5t115 191t38 269.5q0 152 -38 271.5t-114.5 190 t-181.5 70.5q-156 0 -243.5 -149t-87.5 -383zM520 1481l228 295h170l-275 -295h-123z" />
<glyph unicode="&#xd4;" horiz-adv-x="1241" d="M88 682q0 201 61 360t182.5 253t286.5 94q166 0 288.5 -94t184.5 -253t62 -360t-62 -360t-184.5 -253t-288.5 -94q-165 0 -286.5 94t-182.5 253t-61 360zM287 682q0 -151 37 -270t113.5 -190.5t180.5 -71.5t181 71.5t115 191t38 269.5q0 152 -38 271.5t-114.5 190 t-181.5 70.5q-156 0 -243.5 -149t-87.5 -383zM375 1481l164 295h163l168 -295h-108l-141 207l-138 -207h-108z" />
<glyph unicode="&#xd5;" horiz-adv-x="1241" d="M88 682q0 201 61 360t182.5 253t286.5 94q166 0 288.5 -94t184.5 -253t62 -360t-62 -360t-184.5 -253t-288.5 -94q-165 0 -286.5 94t-182.5 253t-61 360zM287 682q0 -151 37 -270t113.5 -190.5t180.5 -71.5t181 71.5t115 191t38 269.5q0 152 -38 271.5t-114.5 190 t-181.5 70.5q-156 0 -243.5 -149t-87.5 -383zM338 1489q0 124 47 199t135 75q26 0 46.5 -8.5t38 -27t26.5 -32t24 -38.5t23.5 -37.5t22.5 -23.5t30 -11q33 0 53.5 41.5t20.5 124.5h98q0 -123 -46 -198.5t-134 -75.5q-26 0 -46.5 8.5t-38 27t-26.5 32t-24 38.5t-23.5 37.5 t-22.5 23.5t-30 11q-33 0 -54.5 -41.5t-21.5 -124.5h-98z" />
<glyph unicode="&#xd6;" horiz-adv-x="1241" d="M88 682q0 201 61 360t182.5 253t286.5 94q166 0 288.5 -94t184.5 -253t62 -360t-62 -360t-184.5 -253t-288.5 -94q-165 0 -286.5 94t-182.5 253t-61 360zM287 682q0 -151 37 -270t113.5 -190.5t180.5 -71.5t181 71.5t115 191t38 269.5q0 152 -38 271.5t-114.5 190 t-181.5 70.5q-156 0 -243.5 -149t-87.5 -383zM334 1581q0 43 30.5 74t73.5 31t73 -31t30 -74t-30 -72.5t-73 -29.5t-73.5 29.5t-30.5 72.5zM698 1581q0 43 31 74t72 31q43 0 73.5 -31t30.5 -74t-30.5 -72.5t-73.5 -29.5q-42 0 -72.5 30t-30.5 72z" />
<glyph unicode="&#xd7;" horiz-adv-x="901" d="M109 426l258 258l-258 258l84 84l258 -258l258 258l84 -84l-258 -258l258 -258l-84 -84l-258 258l-258 -258z" />
<glyph unicode="&#xd8;" horiz-adv-x="1241" d="M88 682q0 201 61 360t182.5 253t286.5 94q157 0 279 -86l37 63h137l-84 -147q80 -97 123 -236t43 -301q0 -201 -62 -360t-184.5 -253t-288.5 -94q-157 0 -282 91l-39 -66h-137l86 154q-76 95 -117 231.5t-41 296.5zM287 682q0 -201 65 -340l453 799q-76 73 -187 73 q-156 0 -243.5 -149t-87.5 -383zM428 231q78 -81 190 -81q104 0 181 71.5t115 191t38 269.5q0 209 -69 350z" />
<glyph unicode="&#xd9;" horiz-adv-x="1187" d="M137 451v915h195v-917q0 -147 68.5 -224.5t193.5 -77.5t193.5 77.5t68.5 224.5v917h195v-915q0 -227 -121 -351.5t-336 -124.5t-336 124.5t-121 351.5zM297 1776h170l227 -295h-123z" />
<glyph unicode="&#xda;" horiz-adv-x="1187" d="M137 451v915h195v-917q0 -147 68.5 -224.5t193.5 -77.5t193.5 77.5t68.5 224.5v917h195v-915q0 -227 -121 -351.5t-336 -124.5t-336 124.5t-121 351.5zM494 1481l229 295h168l-275 -295h-122z" />
<glyph unicode="&#xdb;" horiz-adv-x="1187" d="M137 451v915h195v-917q0 -147 68.5 -224.5t193.5 -77.5t193.5 77.5t68.5 224.5v917h195v-915q0 -227 -121 -351.5t-336 -124.5t-336 124.5t-121 351.5zM348 1481l164 295h164l168 -295h-109l-141 207l-137 -207h-109z" />
<glyph unicode="&#xdc;" horiz-adv-x="1187" d="M137 451v915h195v-917q0 -147 68.5 -224.5t193.5 -77.5t193.5 77.5t68.5 224.5v917h195v-915q0 -227 -121 -351.5t-336 -124.5t-336 124.5t-121 351.5zM309 1581q0 43 31 74t74 31q42 0 72 -31t30 -74t-29.5 -72.5t-72.5 -29.5t-74 30t-31 72zM674 1581q0 43 30.5 74 t71.5 31q43 0 74 -31t31 -74q0 -42 -31 -72t-74 -30q-42 0 -72 30t-30 72z" />
<glyph unicode="&#xdd;" horiz-adv-x="1044" d="M4 1366h217l301 -608l303 608h215l-419 -793v-573h-195v573zM422 1481l229 295h168l-274 -295h-123z" />
<glyph unicode="&#xde;" horiz-adv-x="1024" d="M137 0v1366h195v-240h246q125 0 215.5 -58.5t133 -152t42.5 -208.5q0 -114 -43 -206.5t-133.5 -150t-214.5 -57.5h-246v-293h-195zM332 465h223q97 0 155 67t58 177q0 109 -58 177t-155 68h-223v-489z" />
<glyph unicode="&#xdf;" horiz-adv-x="1105" d="M137 0v1026q0 156 101.5 258t269.5 102q143 0 244.5 -75t101.5 -191q0 -44 -11.5 -79.5t-36.5 -66t-43.5 -47t-53.5 -44.5q-36 -28 -53 -43.5t-33.5 -42.5t-16.5 -56q0 -24 10.5 -44.5t23.5 -34t42 -29.5t46.5 -23.5t55.5 -23.5q38 -15 58 -23.5t55.5 -26t56 -33 t46.5 -40.5t39.5 -52t23.5 -64.5t10 -80.5q0 -123 -91 -207t-243 -84q-113 0 -187 36.5t-142 107.5l77 123q39 -52 101 -88.5t137 -36.5q78 0 125 41t47 104q0 27 -11.5 50t-25.5 38t-44 33t-49 27t-58 26q-31 13 -43.5 18t-41.5 19t-42.5 22.5t-38 24.5t-36 30t-28 35 t-24 42t-13.5 48.5t-6 57.5q0 40 11.5 74t35.5 62.5t42.5 45.5t52.5 43q33 27 51 44t33.5 43.5t15.5 54.5q0 57 -51 94t-121 37q-84 0 -139.5 -54t-55.5 -151v-1026h-174z" />
<glyph unicode="&#xe0;" horiz-adv-x="940" d="M76 305q0 150 87.5 237t213.5 87q80 0 148.5 -31t111.5 -92v158q0 96 -51 148t-146 52q-134 0 -247 -116l-72 122q138 144 348 144q160 0 252 -81t92 -249v-684h-176v102q-45 -62 -114 -94.5t-146 -32.5q-126 0 -213.5 89.5t-87.5 240.5zM172 1434h170l227 -295h-123z M254 301q0 -88 50 -145.5t134 -57.5q61 0 115 31.5t84 87.5v168q-30 56 -84 87.5t-115 31.5q-84 0 -134 -57.5t-50 -145.5z" />
<glyph unicode="&#xe1;" horiz-adv-x="940" d="M76 305q0 150 87.5 237t213.5 87q80 0 148.5 -31t111.5 -92v158q0 96 -51 148t-146 52q-134 0 -247 -116l-72 122q138 144 348 144q160 0 252 -81t92 -249v-684h-176v102q-45 -62 -114 -94.5t-146 -32.5q-126 0 -213.5 89.5t-87.5 240.5zM254 301q0 -88 50 -145.5 t134 -57.5q61 0 115 31.5t84 87.5v168q-30 56 -84 87.5t-115 31.5q-84 0 -134 -57.5t-50 -145.5zM369 1139l229 295h168l-274 -295h-123z" />
<glyph unicode="&#xe2;" horiz-adv-x="940" d="M76 305q0 150 87.5 237t213.5 87q80 0 148.5 -31t111.5 -92v158q0 96 -51 148t-146 52q-134 0 -247 -116l-72 122q138 144 348 144q160 0 252 -81t92 -249v-684h-176v102q-45 -62 -114 -94.5t-146 -32.5q-126 0 -213.5 89.5t-87.5 240.5zM225 1139l164 295h164l168 -295 h-109l-141 207l-137 -207h-109zM254 301q0 -88 50 -145.5t134 -57.5q61 0 115 31.5t84 87.5v168q-30 56 -84 87.5t-115 31.5q-84 0 -134 -57.5t-50 -145.5z" />
<glyph unicode="&#xe3;" horiz-adv-x="940" d="M76 305q0 150 87.5 237t213.5 87q80 0 148.5 -31t111.5 -92v158q0 96 -51 148t-146 52q-134 0 -247 -116l-72 122q138 144 348 144q160 0 252 -81t92 -249v-684h-176v102q-45 -62 -114 -94.5t-146 -32.5q-126 0 -213.5 89.5t-87.5 240.5zM188 1147q0 124 47.5 199 t135.5 75q26 0 46.5 -8.5t38 -27t26.5 -32t24 -38.5t23.5 -37.5t22.5 -23.5t30 -11q33 0 53 41t20 125h99q0 -123 -46.5 -198.5t-134.5 -75.5q-26 0 -47 8t-39 28.5t-25.5 30.5t-25.5 39q-12 21 -17 28.5t-15.5 21t-20 18t-21.5 4.5q-33 0 -54 -41.5t-21 -124.5h-99z M254 301q0 -88 50 -145.5t134 -57.5q61 0 115 31.5t84 87.5v168q-30 56 -84 87.5t-115 31.5q-84 0 -134 -57.5t-50 -145.5z" />
<glyph unicode="&#xe4;" horiz-adv-x="940" d="M76 305q0 150 87.5 237t213.5 87q80 0 148.5 -31t111.5 -92v158q0 96 -51 148t-146 52q-134 0 -247 -116l-72 122q138 144 348 144q160 0 252 -81t92 -249v-684h-176v102q-45 -62 -114 -94.5t-146 -32.5q-126 0 -213.5 89.5t-87.5 240.5zM184 1239q0 43 31 73.5t74 30.5 t73.5 -30.5t30.5 -73.5t-30.5 -72.5t-73.5 -29.5t-74 30t-31 72zM254 301q0 -88 50 -145.5t134 -57.5q61 0 115 31.5t84 87.5v168q-30 56 -84 87.5t-115 31.5q-84 0 -134 -57.5t-50 -145.5zM549 1239q0 43 30.5 73.5t71.5 30.5q43 0 75 -31t32 -73t-32 -72t-75 -30 q-42 0 -72 30t-30 72z" />
<glyph unicode="&#xe5;" horiz-adv-x="940" d="M76 305q0 150 87.5 237t213.5 87q80 0 148.5 -31t111.5 -92v158q0 96 -51 148t-146 52q-134 0 -247 -116l-72 122q138 144 348 144q160 0 252 -81t92 -249v-684h-176v102q-45 -62 -114 -94.5t-146 -32.5q-126 0 -213.5 89.5t-87.5 240.5zM254 301q0 -88 50 -145.5 t134 -57.5q61 0 115 31.5t84 87.5v168q-30 56 -84 87.5t-115 31.5q-84 0 -134 -57.5t-50 -145.5zM283 1298q0 77 55 133t133 56t133 -56t55 -133q0 -78 -55 -134t-133 -56t-133 56t-55 134zM369 1298q0 -43 30.5 -73.5t71.5 -30.5q43 0 72.5 30.5t29.5 73.5q0 42 -30 72.5 t-72 30.5q-41 0 -71.5 -31t-30.5 -72z" />
<glyph unicode="&#xe6;" horiz-adv-x="1515" d="M76 301q0 151 88.5 239.5t224.5 88.5q83 0 157 -31t122 -90v156q0 95 -55 147.5t-156 52.5q-148 0 -264 -116l-72 122q141 144 352 144q112 0 189.5 -49t103.5 -136q102 185 297 185q122 0 209.5 -71t129.5 -188.5t42 -267.5v-49h-604q6 -142 73 -229.5t183 -87.5 q58 0 116 31t99 86l88 -109q-62 -72 -145.5 -113t-172.5 -41q-114 0 -192.5 49t-132.5 146q-47 -86 -135.5 -140.5t-202.5 -54.5q-151 0 -246.5 87t-95.5 239zM254 311q0 -91 54 -141.5t143 -50.5q92 0 154.5 68t62.5 161v37q-35 56 -93 87.5t-124 31.5q-89 0 -143 -52.5 t-54 -140.5zM838 563h434q0 55 -11.5 106t-35.5 97t-67.5 74t-100.5 28q-56 0 -99 -28.5t-68 -75t-37.5 -97.5t-14.5 -104z" />
<glyph unicode="&#xe7;" horiz-adv-x="841" d="M78 496q0 225 116 371.5t306 146.5t293 -133l-93 -119q-72 96 -184 96q-120 0 -188 -103t-68 -259t68 -260.5t188 -104.5q110 0 184 96l93 -118q-90 -118 -248 -132l-35 -86q26 23 68 23q53 0 87.5 -38t34.5 -99q0 -74 -57 -120t-143 -46q-56 0 -106 17.5t-81 43.5l39 82 q66 -57 144 -57q44 0 75 22.5t31 59.5q0 65 -63 65q-39 0 -66 -30l-72 43l45 123q-168 21 -268 164.5t-100 351.5z" />
<glyph unicode="&#xe8;" horiz-adv-x="964" d="M78 496q0 144 49 261t144 187t221 70q128 0 220 -71t136.5 -188t44.5 -266v-51h-635q6 -140 77.5 -228.5t194.5 -88.5q61 0 123 30.5t105 84.5l90 -107q-135 -154 -334 -154t-317.5 144.5t-118.5 376.5zM195 1434h170l227 -295h-123zM256 563h465q-1 55 -14 106t-39 97 t-72.5 74t-106.5 28q-59 0 -104.5 -28.5t-72 -75t-40.5 -97.5t-16 -104z" />
<glyph unicode="&#xe9;" horiz-adv-x="964" d="M78 496q0 144 49 261t144 187t221 70q128 0 220 -71t136.5 -188t44.5 -266v-51h-635q6 -140 77.5 -228.5t194.5 -88.5q61 0 123 30.5t105 84.5l90 -107q-135 -154 -334 -154t-317.5 144.5t-118.5 376.5zM256 563h465q-1 55 -14 106t-39 97t-72.5 74t-106.5 28 q-59 0 -104.5 -28.5t-72 -75t-40.5 -97.5t-16 -104zM391 1139l230 295h167l-274 -295h-123z" />
<glyph unicode="&#xea;" horiz-adv-x="964" d="M78 496q0 144 49 261t144 187t221 70q128 0 220 -71t136.5 -188t44.5 -266v-51h-635q6 -140 77.5 -228.5t194.5 -88.5q61 0 123 30.5t105 84.5l90 -107q-135 -154 -334 -154t-317.5 144.5t-118.5 376.5zM246 1139l164 295h163l168 -295h-108l-141 207l-138 -207h-108z M256 563h465q-1 55 -14 106t-39 97t-72.5 74t-106.5 28q-59 0 -104.5 -28.5t-72 -75t-40.5 -97.5t-16 -104z" />
<glyph unicode="&#xeb;" horiz-adv-x="964" d="M78 496q0 144 49 261t144 187t221 70q128 0 220 -71t136.5 -188t44.5 -266v-51h-635q6 -140 77.5 -228.5t194.5 -88.5q61 0 123 30.5t105 84.5l90 -107q-135 -154 -334 -154t-317.5 144.5t-118.5 376.5zM207 1239q0 43 30.5 73.5t73.5 30.5t73 -30.5t30 -73.5t-30 -72.5 t-73 -29.5t-73.5 29.5t-30.5 72.5zM256 563h465q-1 55 -14 106t-39 97t-72.5 74t-106.5 28q-59 0 -104.5 -28.5t-72 -75t-40.5 -97.5t-16 -104zM571 1239q0 43 30.5 73.5t72.5 30.5q43 0 73.5 -30.5t30.5 -73.5t-30.5 -72.5t-73.5 -29.5q-42 0 -72.5 30t-30.5 72z" />
<glyph unicode="&#xec;" horiz-adv-x="430" d="M-82 1434h168l229 -295h-122zM127 0v989h176v-989h-176z" />
<glyph unicode="&#xed;" horiz-adv-x="430" d="M115 1139l229 295h168l-274 -295h-123zM127 0v989h176v-989h-176z" />
<glyph unicode="&#xee;" horiz-adv-x="430" d="M-33 1139l164 295h164l168 -295h-109l-141 207l-135 -207h-111zM127 0v989h176v-989h-176z" />
<glyph unicode="&#xef;" horiz-adv-x="430" d="M-70 1239q0 43 31 73.5t72 30.5q43 0 73.5 -30.5t30.5 -73.5t-30.5 -72.5t-73.5 -29.5q-42 0 -72.5 30t-30.5 72zM127 0v989h176v-989h-176zM293 1239q0 43 30.5 73.5t73.5 30.5q42 0 73.5 -31t31.5 -73t-31.5 -72t-73.5 -30q-43 0 -73.5 29.5t-30.5 72.5z" />
<glyph unicode="&#xf0;" horiz-adv-x="987" d="M78 475q0 138 44 250.5t129.5 180t197.5 67.5q157 0 249 -156q-61 155 -198 318l-254 -113l-41 92l223 98q-37 39 -115 109l125 111q103 -99 148 -150l184 80l39 -88l-158 -72q258 -326 258 -682q0 -159 -46 -280.5t-141 -193t-228 -71.5q-130 0 -226 69t-143 181 t-47 250zM262 475q0 -93 24 -168.5t77.5 -125.5t130.5 -50t131.5 50t78 125.5t23.5 168.5q0 92 -23.5 167t-78 125t-131.5 50q-113 0 -172.5 -99.5t-59.5 -242.5z" />
<glyph unicode="&#xf1;" horiz-adv-x="972" d="M127 0v989h176v-137q45 67 123 114.5t164 47.5q254 0 254 -269v-745h-174v688q0 170 -150 170q-67 0 -125.5 -42.5t-91.5 -104.5v-711h-176zM207 1147q0 124 46.5 199t133.5 75q26 0 47 -8.5t38.5 -27.5t25.5 -31.5t24 -38.5q15 -25 23.5 -37.5t22.5 -23.5t30 -11 q33 0 54.5 41.5t21.5 124.5h96q0 -123 -46 -198.5t-134 -75.5q-26 0 -46.5 8.5t-38 27t-26.5 32t-24 38.5t-23.5 37.5t-22 23.5t-28.5 11q-35 0 -56.5 -41.5t-21.5 -124.5h-96z" />
<glyph unicode="&#xf2;" horiz-adv-x="987" d="M78 496q0 106 27 199t78.5 164.5t131.5 113t179 41.5q131 0 227 -72t142 -187.5t46 -258.5t-46 -259t-142 -189t-227 -73q-99 0 -179 42t-131.5 114t-78.5 165.5t-27 199.5zM197 1434h170l227 -295h-123zM262 496q0 -154 59.5 -259.5t172.5 -105.5q78 0 132 52.5 t77.5 133t23.5 179.5q0 98 -23.5 177.5t-77.5 132t-132 52.5q-77 0 -130.5 -52.5t-77.5 -132t-24 -177.5z" />
<glyph unicode="&#xf3;" horiz-adv-x="987" d="M78 496q0 106 27 199t78.5 164.5t131.5 113t179 41.5q131 0 227 -72t142 -187.5t46 -258.5t-46 -259t-142 -189t-227 -73q-99 0 -179 42t-131.5 114t-78.5 165.5t-27 199.5zM262 496q0 -154 59.5 -259.5t172.5 -105.5q78 0 132 52.5t77.5 133t23.5 179.5 q0 98 -23.5 177.5t-77.5 132t-132 52.5q-77 0 -130.5 -52.5t-77.5 -132t-24 -177.5zM393 1139l230 295h168l-275 -295h-123z" />
<glyph unicode="&#xf4;" horiz-adv-x="987" d="M78 496q0 106 27 199t78.5 164.5t131.5 113t179 41.5q131 0 227 -72t142 -187.5t46 -258.5t-46 -259t-142 -189t-227 -73q-99 0 -179 42t-131.5 114t-78.5 165.5t-27 199.5zM248 1139l162 295h163l168 -295h-108l-141 207l-136 -207h-108zM262 496q0 -154 59.5 -259.5 t172.5 -105.5q78 0 132 52.5t77.5 133t23.5 179.5q0 98 -23.5 177.5t-77.5 132t-132 52.5q-77 0 -130.5 -52.5t-77.5 -132t-24 -177.5z" />
<glyph unicode="&#xf5;" horiz-adv-x="987" d="M78 496q0 106 27 199t78.5 164.5t131.5 113t179 41.5q131 0 227 -72t142 -187.5t46 -258.5t-46 -259t-142 -189t-227 -73q-99 0 -179 42t-131.5 114t-78.5 165.5t-27 199.5zM213 1147q0 125 46 199.5t134 74.5q26 0 47 -8.5t38.5 -27.5t25.5 -31.5t24 -38.5 q15 -25 23.5 -37.5t22.5 -23.5t30 -11q33 0 53.5 41.5t20.5 124.5h98q0 -123 -46 -198.5t-134 -75.5q-26 0 -46.5 8.5t-38 27t-26.5 32t-24 38.5t-23.5 37.5t-22.5 23.5t-30 11q-33 0 -54.5 -41.5t-21.5 -124.5h-96zM262 496q0 -154 59.5 -259.5t172.5 -105.5q78 0 132 52.5 t77.5 133t23.5 179.5q0 98 -23.5 177.5t-77.5 132t-132 52.5q-77 0 -130.5 -52.5t-77.5 -132t-24 -177.5z" />
<glyph unicode="&#xf6;" horiz-adv-x="987" d="M78 496q0 106 27 199t78.5 164.5t131.5 113t179 41.5q131 0 227 -72t142 -187.5t46 -258.5t-46 -259t-142 -189t-227 -73q-99 0 -179 42t-131.5 114t-78.5 165.5t-27 199.5zM209 1239q0 43 30.5 73.5t71.5 30.5q43 0 74 -30.5t31 -73.5q0 -42 -31 -72t-74 -30 q-42 0 -72 30t-30 72zM262 496q0 -154 59.5 -259.5t172.5 -105.5q78 0 132 52.5t77.5 133t23.5 179.5q0 98 -23.5 177.5t-77.5 132t-132 52.5q-77 0 -130.5 -52.5t-77.5 -132t-24 -177.5zM571 1239q0 43 31 73.5t74 30.5q42 0 73 -31t31 -73t-31 -72t-73 -30q-43 0 -74 30 t-31 72z" />
<glyph unicode="&#xf7;" horiz-adv-x="907" d="M59 631v119h789v-119h-789zM354 346q0 41 30 72t71 31t70.5 -30.5t29.5 -72.5q0 -40 -29.5 -69t-70.5 -29t-71 29t-30 69zM354 1026q0 41 30 70.5t71 29.5t70.5 -29.5t29.5 -70.5t-29.5 -70.5t-70.5 -29.5t-71 29.5t-30 70.5z" />
<glyph unicode="&#xf8;" horiz-adv-x="987" d="M78 496q0 106 27 199t78.5 164.5t131.5 113t179 41.5q135 0 235 -78l35 53h115l-82 -121q112 -145 112 -372q0 -143 -46 -259t-142 -189t-227 -73q-139 0 -240 82l-39 -57h-113l84 127q-108 144 -108 369zM262 496q0 -119 33 -207l340 508q-55 61 -141 61 q-77 0 -130.5 -52.5t-77.5 -132t-24 -177.5zM348 199q59 -68 146 -68q78 0 132 52.5t77.5 133t23.5 179.5q0 121 -37 211z" />
<glyph unicode="&#xf9;" horiz-adv-x="972" d="M127 242v747h176v-692q0 -88 38.5 -127t111.5 -39q66 0 124.5 41t92.5 102v715h174v-989h-174v133q-48 -68 -124 -113t-165 -45q-254 0 -254 267zM188 1434h170l228 -295h-123z" />
<glyph unicode="&#xfa;" horiz-adv-x="972" d="M127 242v747h176v-692q0 -88 38.5 -127t111.5 -39q66 0 124.5 41t92.5 102v715h174v-989h-174v133q-48 -68 -124 -113t-165 -45q-254 0 -254 267zM385 1139l229 295h168l-274 -295h-123z" />
<glyph unicode="&#xfb;" horiz-adv-x="972" d="M127 242v747h176v-692q0 -88 38.5 -127t111.5 -39q66 0 124.5 41t92.5 102v715h174v-989h-174v133q-48 -68 -124 -113t-165 -45q-254 0 -254 267zM240 1139l161 295h166l168 -295h-110l-142 207l-135 -207h-108z" />
<glyph unicode="&#xfc;" horiz-adv-x="972" d="M127 242v747h176v-692q0 -88 38.5 -127t111.5 -39q66 0 124.5 41t92.5 102v715h174v-989h-174v133q-48 -68 -124 -113t-165 -45q-254 0 -254 267zM201 1239q0 43 30.5 73.5t73.5 30.5t73 -30.5t30 -73.5t-30 -72.5t-73 -29.5t-73.5 29.5t-30.5 72.5zM565 1239 q0 43 30.5 73.5t72.5 30.5q43 0 74.5 -30.5t31.5 -73.5q0 -42 -31.5 -72t-74.5 -30q-42 0 -72.5 30t-30.5 72z" />
<glyph unicode="&#xfd;" horiz-adv-x="858" d="M8 989h189l231 -776l236 776h186l-393 -1186q-37 -112 -102 -158t-167 -46q-60 0 -104 14l29 156q27 -15 63 -15q44 0 70.5 20t44.5 70l47 136zM328 1139l229 295h168l-274 -295h-123z" />
<glyph unicode="&#xfe;" horiz-adv-x="995" d="M127 -377v1743h176v-510q43 75 110.5 116.5t145.5 41.5q166 0 262.5 -140.5t96.5 -377.5t-96.5 -379t-262.5 -142q-78 0 -145.5 40.5t-110.5 119.5v-512h-176zM303 281q29 -62 87.5 -106t119.5 -44q109 0 167 102.5t58 262.5q0 159 -58 260.5t-167 101.5 q-62 0 -120.5 -42.5t-86.5 -104.5v-430z" />
<glyph unicode="&#xff;" horiz-adv-x="858" d="M8 989h189l231 -776l236 776h186l-393 -1186q-37 -112 -102 -158t-167 -46q-60 0 -104 14l29 156q27 -15 63 -15q44 0 70.5 20t44.5 70l47 136zM147 1239q0 43 30.5 73.5t72.5 30.5q43 0 73.5 -30.5t30.5 -73.5t-30.5 -72.5t-73.5 -29.5q-42 0 -72.5 30t-30.5 72z M510 1239q0 43 30.5 73.5t73.5 30.5t74 -30.5t31 -73.5q0 -42 -31 -72t-74 -30t-73.5 29.5t-30.5 72.5z" />
<glyph unicode="&#x152;" horiz-adv-x="1744" d="M88 682q0 201 58 359t174 251.5t274 93.5q99 0 189.5 -48t144.5 -146v174h725v-172h-531v-412h516v-172h-516v-438h531v-172h-725v174q-54 -100 -145 -149.5t-189 -49.5q-158 0 -274 94t-174 252.5t-58 360.5zM287 682q0 -152 37 -270.5t114.5 -190t184.5 -71.5 q105 0 185.5 69t119.5 197v532q-39 128 -119.5 196t-185.5 68q-160 0 -248 -147.5t-88 -382.5z" />
<glyph unicode="&#x153;" horiz-adv-x="1609" d="M78 496q0 106 27 199t78.5 164.5t131.5 113t179 41.5q122 0 201 -67t122 -169q42 101 123 168.5t199 67.5q128 0 219.5 -71t135.5 -188.5t44 -267.5v-49h-633q6 -140 77.5 -228.5t193.5 -88.5q64 0 124.5 30t104.5 85l88 -107q-62 -73 -148.5 -113.5t-183.5 -40.5 q-241 0 -344 240q-20 -49 -47 -89t-65.5 -75.5t-92.5 -55.5t-118 -20q-99 0 -179 42t-131.5 114t-78.5 165.5t-27 199.5zM262 496q0 -100 24.5 -181t78 -133.5t129.5 -52.5q77 0 131 52.5t78 133.5t24 181t-24 180t-78 131t-131 51q-76 0 -129.5 -51t-78 -131t-24.5 -180z M905 563h463q-1 55 -14 106t-39 97t-72.5 74t-107.5 28q-58 0 -103.5 -28.5t-71.5 -74.5t-39.5 -97.5t-15.5 -104.5z" />
<glyph unicode="&#x178;" horiz-adv-x="1044" d="M4 1366h217l301 -608l303 608h215l-419 -793v-573h-195v573zM242 1581q0 43 30.5 74t71.5 31q43 0 74 -31t31 -74q0 -42 -31 -72t-74 -30q-42 0 -72 30t-30 72zM604 1581q0 43 31 74t74 31q41 0 72.5 -31t31.5 -74q0 -42 -31 -72t-73 -30q-43 0 -74 30t-31 72z" />
<glyph unicode="&#x2dc;" horiz-adv-x="565" d="M0 1147q0 124 46.5 199t133.5 75q26 0 47 -8.5t38.5 -27.5t25.5 -31.5t24 -38.5q17 -27 25 -38t22 -22.5t29 -11.5q34 0 55 41t21 125h98q0 -123 -46.5 -198.5t-133.5 -75.5q-26 0 -47 8t-39 28.5t-25.5 30.5t-25.5 39q-12 21 -17 28.5t-15.5 21t-20 18t-21.5 4.5 q-33 0 -54.5 -41.5t-21.5 -124.5h-98z" />
<glyph unicode="&#x2000;" horiz-adv-x="898" />
<glyph unicode="&#x2001;" horiz-adv-x="1796" />
<glyph unicode="&#x2002;" horiz-adv-x="898" />
<glyph unicode="&#x2003;" horiz-adv-x="1796" />
<glyph unicode="&#x2004;" horiz-adv-x="598" />
<glyph unicode="&#x2005;" horiz-adv-x="449" />
<glyph unicode="&#x2006;" horiz-adv-x="299" />
<glyph unicode="&#x2007;" horiz-adv-x="299" />
<glyph unicode="&#x2008;" horiz-adv-x="224" />
<glyph unicode="&#x2009;" horiz-adv-x="359" />
<glyph unicode="&#x200a;" horiz-adv-x="99" />
<glyph unicode="&#x2010;" horiz-adv-x="548" d="M61 420v151h426v-151h-426z" />
<glyph unicode="&#x2011;" horiz-adv-x="548" d="M61 420v151h426v-151h-426z" />
<glyph unicode="&#x2012;" horiz-adv-x="548" d="M61 420v151h426v-151h-426z" />
<glyph unicode="&#x2013;" horiz-adv-x="1079" d="M61 420v151h957v-151h-957z" />
<glyph unicode="&#x2014;" horiz-adv-x="1509" d="M61 420v151h1387v-151h-1387z" />
<glyph unicode="&#x2018;" horiz-adv-x="483" d="M102 1065q0 95 48 180t126 141l84 -67q-50 -31 -90 -86t-47 -105q1 0 12 2.5t17 2.5q46 0 77 -33t31 -82q0 -48 -35 -83.5t-85 -35.5q-58 0 -98 44.5t-40 121.5z" />
<glyph unicode="&#x2019;" horiz-adv-x="483" d="M117 965q51 33 90.5 87.5t46.5 104.5q-12 -6 -29 -6q-46 0 -77 33t-31 82q0 50 35 85t86 35q58 0 97.5 -44t39.5 -121q0 -95 -48 -181.5t-126 -142.5z" />
<glyph unicode="&#x201c;" horiz-adv-x="827" d="M109 1065q0 95 47.5 180t124.5 141l86 -67q-51 -32 -91.5 -86.5t-46.5 -104.5q1 0 5.5 1t11.5 2.5t12 1.5q45 0 76 -33t31 -82q0 -48 -35.5 -83.5t-85.5 -35.5q-57 0 -96 44.5t-39 121.5zM453 1065q0 94 48.5 179t125.5 142l86 -67q-51 -32 -91.5 -86.5t-46.5 -104.5 q1 0 5.5 1t11.5 2.5t12 1.5q45 0 76 -33t31 -82q0 -48 -35.5 -83.5t-85.5 -35.5q-57 0 -97 45t-40 121z" />
<glyph unicode="&#x201d;" horiz-adv-x="827" d="M117 965q51 33 90.5 87.5t46.5 104.5q-12 -6 -29 -6q-46 0 -77 33t-31 82q0 50 35 85t86 35q58 0 97.5 -44t39.5 -121q0 -95 -48 -181.5t-126 -142.5zM463 965q51 33 90.5 87.5t46.5 104.5q-12 -6 -31 -6q-45 0 -75.5 33t-30.5 82q0 50 35 85t86 35q58 0 97.5 -44 t39.5 -121q0 -95 -48.5 -181t-125.5 -143z" />
<glyph unicode="&#x201e;" horiz-adv-x="827" d="M117 104q0 50 35 85.5t86 35.5q58 0 97.5 -44.5t39.5 -121.5q0 -95 -48 -181t-126 -142l-84 67q50 33 90 88t47 105q-8 -4 -29 -4q-46 0 -77 31.5t-31 80.5zM463 104q0 50 35 85.5t86 35.5q58 0 97.5 -44.5t39.5 -121.5q0 -95 -48.5 -180.5t-125.5 -142.5l-84 67 q50 33 90 88t47 105q-8 -4 -31 -4q-45 0 -75.5 31.5t-30.5 80.5z" />
<glyph unicode="&#x2022;" horiz-adv-x="733" d="M143 496q0 94 66 159.5t160 65.5t159.5 -65.5t65.5 -159.5q0 -92 -66 -158t-159 -66q-94 0 -160 66t-66 158z" />
<glyph unicode="&#x2026;" horiz-adv-x="1443" d="M117 102q0 51 36 87t87 36t86.5 -36t35.5 -87q0 -50 -35.5 -86t-86.5 -36t-87 36t-36 86zM598 102q0 51 36 87t87 36t88 -36t37 -87q0 -50 -37 -86t-88 -36t-87 36t-36 86zM1079 102q0 51 36 87t87 36t88 -36t37 -87q0 -50 -37 -86t-88 -36t-87 36t-36 86z" />
<glyph unicode="&#x202f;" horiz-adv-x="359" />
<glyph unicode="&#x2039;" horiz-adv-x="536" d="M61 498l256 362h158l-256 -362l256 -369h-158z" />
<glyph unicode="&#x203a;" horiz-adv-x="536" d="M61 129l256 369l-256 362h158l256 -362l-256 -369h-158z" />
<glyph unicode="&#x205f;" horiz-adv-x="449" />
<glyph unicode="&#x20ac;" horiz-adv-x="1140" d="M45 481v117h82q-4 54 -4 84t4 88h-82v119h98q45 228 184 364t341 136q272 0 415 -285l-161 -74q-40 86 -104.5 135t-149.5 49q-118 0 -202 -87.5t-118 -237.5h410v-119h-430q-4 -58 -4 -88t4 -84h430v-117h-412q34 -154 118.5 -242.5t203.5 -88.5q88 0 153.5 54.5 t102.5 145.5l163 -74q-143 -301 -419 -301q-203 0 -342 138t-183 368h-98z" />
<glyph unicode="&#x2122;" horiz-adv-x="847" d="M35 1313v53h270v-53h-106v-398h-58v398h-106zM379 915v451h88l111 -324l110 324h88v-451h-57v373l-133 -373h-17l-133 373v-373h-57z" />
<glyph unicode="&#x25fc;" horiz-adv-x="993" d="M0 0v993h993v-993h-993z" />
<glyph unicode="&#xfb01;" horiz-adv-x="970" d="M37 836v153h129v107q0 136 69.5 213t184.5 77q85 0 139 -32l-39 -135q-24 18 -65 18q-53 0 -83 -37t-30 -104v-107h166v-153h-166v-836h-176v836h-129zM641 1237q0 47 34.5 81t80.5 34t79 -34t33 -81t-33 -81t-79 -34t-80.5 34t-34.5 81zM668 0v989h176v-989h-176z" />
<glyph unicode="&#xfb02;" horiz-adv-x="970" d="M37 836v153h129v107q0 136 69.5 213t184.5 77q85 0 139 -32l-39 -135q-24 18 -65 18q-53 0 -83 -37t-30 -104v-107h166v-153h-166v-836h-176v836h-129zM668 0v1366h176v-1366h-176z" />
<glyph unicode="&#xfb03;" horiz-adv-x="1509" d="M37 836v153h129v107q0 136 69.5 213t184.5 77q80 0 139 -30l-39 -135q-29 16 -63 16q-54 0 -84.5 -37t-30.5 -104v-107h166v-153h-166v-836h-176v836h-129zM575 836v153h132v107q0 136 69 213t185 77q86 0 137 -32l-39 -135q-21 18 -64 18q-54 0 -84 -37t-30 -104v-107 h166v-153h-166v-836h-174v836h-132zM1180 1237q0 47 34 81t80 34q47 0 81 -34t34 -81t-34 -81t-81 -34q-46 0 -80 34t-34 81zM1206 0v989h176v-989h-176z" />
<glyph unicode="&#xfb04;" horiz-adv-x="1509" d="M37 836v153h129v107q0 136 69.5 213t184.5 77q80 0 139 -30l-39 -135q-29 16 -63 16q-54 0 -84.5 -37t-30.5 -104v-107h166v-153h-166v-836h-176v836h-129zM575 836v153h132v107q0 136 69 213t185 77q86 0 137 -32l-39 -135q-21 18 -64 18q-54 0 -84 -37t-30 -104v-107 h166v-153h-166v-836h-174v836h-132zM1206 0v1366h176v-1366h-176z" />
</font>
</defs>
</svg>
