<svg width="3000" height="4000" viewBox="0 0 3000 4000" xmlns="http://www.w3.org/2000/svg"><title>header-aboutfilm-desktop</title><path d="M3000 0v4000H0V0h3000zM1270.836 2007.68l-8.516-21.68h-5.84l-10.48 26.68h5.32l1.96-5.16h12.24l.06.16h5.256zM1296 1986h8.08c4.92 0 7.6 3.04 7.6 6.8 0 3.32-2.16 5.6-4.64 6.12 2.88.44 5.16 3.28 5.16 6.52 0 4.16-2.72 7.24-7.76 7.24H1296v-4.12h7.36c2.52 0 4.04-1.4 4.04-3.72 0-2-1.4-3.72-4.04-3.72H1296V1997h7.16c2.36 0 3.72-1.4 3.72-3.44 0-1.96-1.36-3.44-3.72-3.44H1296V1986zm61.277 14.12c.002-.106.003-.213.003-.32 0-7.96-5.68-13.8-13.64-13.8-8 0-13.64 5.84-13.64 13.8 0 7.827 5.453 13.604 13.24 13.795v-4.163c-5.17-.2-8.44-4.29-8.44-9.632 0-5.52 3.44-9.64 8.84-9.64 5.36 0 8.84 4.12 8.84 9.64 0 .107 0 .214-.004.32h4.8zm42.843-3.44v5.44c0 6.6-3.8 11.04-11.56 11.04-7.72 0-11.56-4.44-11.56-11.04V1986h4.76v16c0 4.24 2.36 7 6.8 7 4.44 0 6.8-2.76 6.8-7v-5.32h4.76zm146.12 4V1986h-4.68v10.88h-13.88V1986H1523v26.68h4.68V2001h.52v-.32h18.04zm24.44 7.88h13.6v4.12H1566V1986h18.28v4.12h-13.6v18.44zm101-9.88V1986H1667v12.68h4.68zM1730 1986h4.653l7.28 18.32 7.24-18.32h6.6v26.68h-4.68v-20.6l-8.16 20.6h-2l-8.2-20.6v.41L1730 1986zm-21.56 26.68v-4.12h-11.76V1986H1692v26.68h16.44zm-73.76 0v-11.56H1648V1997h-13.32v-6.88h13.6V1986H1630v26.68h4.68zm-138.92 0v-22.56h8.08V1986H1483v4.12h8.08v22.56h4.68zm-64.68.44v-22.56h8.08v-4.12h-20.84v4.12h8.08v22.56h4.68zm-166.48-9.4h-9.6l4.8-12.72 4.8 12.72z" fill="#FFF" fill-rule="evenodd" opacity=".9"/></svg>