<svg width="960" height="4000" viewBox="0 0 960 4000" xmlns="http://www.w3.org/2000/svg"><title>header-aboutfilm-resp</title><path d="M0 0h960v4000H0V0zm535.077 2051.77V2038H530v13.77h5.077zm-191.233 15.206v-24.5h8.765V2038H330v4.47h8.766v24.5h5.077v.006zm150.234 0v-12.556h14.45v-4.473h-14.45v-7.472h14.755V2038H489v28.97h5.078v.006zm80.757-.002v-4.474h-12.758V2038H557v28.98h17.836v-.006zm23.17-28.944h5.048l7.898 19.89 7.86-19.9h7.16v28.97h-5.07v-22.37l-8.85 22.37h-2.17l-8.89-22.38v.44L598 2038l.006.03zm-171.927 24.47h14.755v4.47H421V2038h19.832v4.47h-14.755v20.03zm-27.864-8.56V2038h-5.077v11.81h-15.06V2038H373v28.97h5.07v-12.68h.56v-.35h19.583zm175.63-54.96v-24.5h8.767V1970H560v4.47h8.766v24.5h5.07l.008.01zm-34.76-17.38v5.9c0 7.17-4.122 11.99-12.54 11.99-8.377 0-12.543-4.82-12.543-11.99V1970h5.17v17.37c0 4.6 2.56 7.6 7.38 7.6 4.81 0 7.37-3 7.37-7.61v-5.78h5.16l.01.02zm-46.343 3.78l.01-.35c0-8.65-6.16-14.99-14.8-14.99-8.68 0-14.8 6.34-14.8 14.98 0 8.5 5.92 14.77 14.37 14.98v-4.52c-5.6-.22-9.15-4.66-9.15-10.46 0-5.99 3.74-10.47 9.59-10.47 5.82 0 9.59 4.48 9.59 10.47v.35h5.21l-.01.01h-.01zM425 1970h8.766c5.34 0 8.25 3.3 8.25 7.38 0 3.6-2.34 6.08-5.03 6.64 3.13.48 5.6 3.56 5.6 7.08 0 4.51-2.95 7.86-8.42 7.86h-9.15v-4.48h7.99c2.74 0 4.39-1.52 4.39-4.04 0-2.17-1.52-4.04-4.38-4.04h-7.99v-4.44h7.77c2.56 0 4.04-1.52 4.04-3.736 0-2.13-1.47-3.736-4.03-3.736h-7.77v-4.475L425 1970zm-35.3.02h-6.33L372 1998.99h5.77l2.13-5.61h13.28l.07.17h5.7l-9.24-23.55-.01.02zm2.71 18.8H382l5.21-13.82 5.21 13.81-.01.01z" fill="#FFF" fill-rule="evenodd" opacity=".8"/></svg>